<svg xmlns="http://www.w3.org/2000/svg" width="62" height="62" viewBox="0 0 62 62"><g transform="translate(-873 -1798.979)"><g transform="translate(873 1798.979)" fill="#fff" stroke="#707070" stroke-width="0.5"><circle cx="31" cy="31" r="31" stroke="none"/><circle cx="31" cy="31" r="30.75" fill="none"/></g><path d="M30.246,15.4A14.842,14.842,0,1,0,13.085,30.067V19.695H9.315V15.4h3.77v-3.27c0-3.719,2.214-5.774,5.606-5.774a22.841,22.841,0,0,1,3.323.29V10.3H20.142a2.145,2.145,0,0,0-2.418,2.318V15.4H21.84l-.658,4.29H17.723V30.067A14.847,14.847,0,0,0,30.246,15.4Z" transform="translate(888.721 1814.665)" fill="#20426d"/></g></svg>