<svg xmlns="http://www.w3.org/2000/svg" width="62" height="62" viewBox="0 0 62 62"><g transform="translate(-965 -1798.979)"><g transform="translate(965 1798.979)" fill="#fff" stroke="#707070" stroke-width="0.5"><circle cx="31" cy="31" r="31" stroke="none"/><circle cx="31" cy="31" r="30.75" fill="none"/></g><path d="M23.895,1.928H6.815A4.257,4.257,0,0,0,2.571,6.173V23.252A4.257,4.257,0,0,0,6.815,27.5H23.895a4.257,4.257,0,0,0,4.245-4.245V6.173a4.257,4.257,0,0,0-4.245-4.245ZM10.756,13.114h9.2a4.869,4.869,0,1,1-9.2,0Zm14.188,0V22.7a1.6,1.6,0,0,1-1.6,1.6H7.365a1.6,1.6,0,0,1-1.6-1.6V13.114h2.5a7.266,7.266,0,1,0,14.177,0h2.5Zm0-5.594a.8.8,0,0,1-.8.8h-1.6a.8.8,0,0,1-.8-.8v-1.6a.8.8,0,0,1,.8-.8h1.6a.8.8,0,0,1,.8.8Z" transform="translate(980.354 1815.267)" fill="#20426d"/></g></svg>