<svg xmlns="http://www.w3.org/2000/svg" width="62" height="62" viewBox="0 0 62 62"><g transform="translate(-1057 -1798.979)"><g transform="translate(1057 1798.979)" fill="#fff" stroke="#707070" stroke-width="0.5"><circle cx="31" cy="31" r="31" stroke="none"/><circle cx="31" cy="31" r="30.75" fill="none"/></g><path d="M23.263,1.928H6.748A4.19,4.19,0,0,0,2.571,6.105V22.62A4.19,4.19,0,0,0,6.748,26.8H23.263A4.19,4.19,0,0,0,27.44,22.62V6.105a4.19,4.19,0,0,0-4.177-4.177ZM11.9,22.134H8.788V11.254H11.9ZM10.342,9.7A1.554,1.554,0,1,1,11.9,8.145,1.554,1.554,0,0,1,10.342,9.7ZM22.777,22.134H19.668V15.917a1.554,1.554,0,1,0-3.109,0v6.217H13.451V11.254H16.56v1.93c.641-.881,1.621-1.93,2.72-1.93a3.707,3.707,0,0,1,3.5,3.886v6.995Z" transform="translate(1072.768 1815.616)" fill="#20426d"/></g></svg>